<mxfile host="app.diagrams.net" modified="2024-02-23T15:06:17.914Z" agent="Mozilla/5.0 (Windows NT 10.0; Win64; x64) AppleWebKit/537.36 (KHTML, like Gecko) Chrome/121.0.0.0 Safari/537.36" etag="U45edeMHKoKGPwvml1v0" version="23.1.2" type="github">
  <diagram name="Page-1" id="B2OCFWhIo_79OR1QtLX9">
    <mxGraphModel dx="794" dy="454" grid="1" gridSize="10" guides="1" tooltips="1" connect="1" arrows="1" fold="1" page="1" pageScale="1" pageWidth="850" pageHeight="1100" math="0" shadow="0">
      <root>
        <mxCell id="0" />
        <mxCell id="1" parent="0" />
        <mxCell id="jBmMPagFaZcNn0isAh7Z-1" value="Start" style="ellipse;whiteSpace=wrap;html=1;aspect=fixed;" vertex="1" parent="1">
          <mxGeometry x="180" y="130" width="40" height="40" as="geometry" />
        </mxCell>
        <mxCell id="jBmMPagFaZcNn0isAh7Z-2" value="&lt;b style=&quot;color: rgb(32, 33, 34); font-family: Calibri, sans-serif; font-size: 14.6667px; letter-spacing: 0.2px; text-align: start; background-color: rgb(255, 255, 255);&quot;&gt;Potential&lt;/b&gt;" style="rounded=1;whiteSpace=wrap;html=1;" vertex="1" parent="1">
          <mxGeometry x="140" y="290" width="120" height="60" as="geometry" />
        </mxCell>
        <mxCell id="jBmMPagFaZcNn0isAh7Z-3" value="&lt;b style=&quot;color: rgb(32, 33, 34); font-family: Calibri, sans-serif; font-size: 14.6667px; letter-spacing: 0.2px; text-align: start; background-color: rgb(255, 255, 255);&quot;&gt;Active&lt;/b&gt;" style="rounded=1;whiteSpace=wrap;html=1;" vertex="1" parent="1">
          <mxGeometry x="340" y="290" width="120" height="60" as="geometry" />
        </mxCell>
        <mxCell id="jBmMPagFaZcNn0isAh7Z-5" value="&lt;b style=&quot;color: rgb(32, 33, 34); font-family: Calibri, sans-serif; font-size: 14.6667px; letter-spacing: 0.2px; text-align: start; background-color: rgb(255, 255, 255);&quot;&gt;Suspended&lt;/b&gt;" style="rounded=1;whiteSpace=wrap;html=1;" vertex="1" parent="1">
          <mxGeometry x="340" y="180" width="120" height="60" as="geometry" />
        </mxCell>
        <mxCell id="jBmMPagFaZcNn0isAh7Z-6" value="&lt;b style=&quot;color: rgb(32, 33, 34); font-family: Calibri, sans-serif; font-size: 14.6667px; letter-spacing: 0.2px; text-align: start; background-color: rgb(255, 255, 255);&quot;&gt;Former&lt;/b&gt;" style="rounded=1;whiteSpace=wrap;html=1;" vertex="1" parent="1">
          <mxGeometry x="550" y="290" width="120" height="60" as="geometry" />
        </mxCell>
        <mxCell id="jBmMPagFaZcNn0isAh7Z-7" value="" style="endArrow=classic;html=1;rounded=0;exitX=1;exitY=0.5;exitDx=0;exitDy=0;entryX=0;entryY=0.5;entryDx=0;entryDy=0;" edge="1" parent="1" source="jBmMPagFaZcNn0isAh7Z-2" target="jBmMPagFaZcNn0isAh7Z-3">
          <mxGeometry width="50" height="50" relative="1" as="geometry">
            <mxPoint x="380" y="360" as="sourcePoint" />
            <mxPoint x="430" y="310" as="targetPoint" />
            <Array as="points">
              <mxPoint x="310" y="320" />
            </Array>
          </mxGeometry>
        </mxCell>
        <mxCell id="jBmMPagFaZcNn0isAh7Z-8" value="" style="endArrow=classic;html=1;rounded=0;exitX=0.5;exitY=1;exitDx=0;exitDy=0;entryX=0.5;entryY=0;entryDx=0;entryDy=0;" edge="1" parent="1" source="jBmMPagFaZcNn0isAh7Z-1" target="jBmMPagFaZcNn0isAh7Z-2">
          <mxGeometry width="50" height="50" relative="1" as="geometry">
            <mxPoint x="390" y="370" as="sourcePoint" />
            <mxPoint x="440" y="320" as="targetPoint" />
          </mxGeometry>
        </mxCell>
        <mxCell id="jBmMPagFaZcNn0isAh7Z-10" value="" style="endArrow=classic;html=1;rounded=0;entryX=0;entryY=0.5;entryDx=0;entryDy=0;exitX=1;exitY=0.5;exitDx=0;exitDy=0;" edge="1" parent="1" source="jBmMPagFaZcNn0isAh7Z-3" target="jBmMPagFaZcNn0isAh7Z-6">
          <mxGeometry width="50" height="50" relative="1" as="geometry">
            <mxPoint x="430" y="350" as="sourcePoint" />
            <mxPoint x="480" y="300" as="targetPoint" />
            <Array as="points">
              <mxPoint x="520" y="320" />
            </Array>
          </mxGeometry>
        </mxCell>
        <mxCell id="jBmMPagFaZcNn0isAh7Z-11" value="End" style="ellipse;whiteSpace=wrap;html=1;aspect=fixed;" vertex="1" parent="1">
          <mxGeometry x="590" y="130" width="40" height="40" as="geometry" />
        </mxCell>
        <mxCell id="jBmMPagFaZcNn0isAh7Z-12" value="" style="endArrow=classic;html=1;rounded=0;entryX=0.5;entryY=1;entryDx=0;entryDy=0;exitX=0.5;exitY=0;exitDx=0;exitDy=0;" edge="1" parent="1" source="jBmMPagFaZcNn0isAh7Z-6" target="jBmMPagFaZcNn0isAh7Z-11">
          <mxGeometry width="50" height="50" relative="1" as="geometry">
            <mxPoint x="560" y="240" as="sourcePoint" />
            <mxPoint x="610" y="190" as="targetPoint" />
          </mxGeometry>
        </mxCell>
        <mxCell id="jBmMPagFaZcNn0isAh7Z-18" value="Back to&lt;br&gt;League" style="text;html=1;strokeColor=none;fillColor=none;align=center;verticalAlign=middle;whiteSpace=wrap;rounded=0;" vertex="1" parent="1">
          <mxGeometry x="430" y="250" width="60" height="30" as="geometry" />
        </mxCell>
        <mxCell id="jBmMPagFaZcNn0isAh7Z-21" value="suspended&lt;br&gt;for some&lt;br&gt;reason" style="text;html=1;strokeColor=none;fillColor=none;align=center;verticalAlign=middle;whiteSpace=wrap;rounded=0;" vertex="1" parent="1">
          <mxGeometry x="300" y="250" width="60" height="30" as="geometry" />
        </mxCell>
        <mxCell id="jBmMPagFaZcNn0isAh7Z-22" value="new&lt;br&gt;bowlers" style="text;html=1;strokeColor=none;fillColor=none;align=center;verticalAlign=middle;whiteSpace=wrap;rounded=0;" vertex="1" parent="1">
          <mxGeometry x="270" y="330" width="60" height="30" as="geometry" />
        </mxCell>
        <mxCell id="jBmMPagFaZcNn0isAh7Z-23" value="seniors" style="text;html=1;strokeColor=none;fillColor=none;align=center;verticalAlign=middle;whiteSpace=wrap;rounded=0;" vertex="1" parent="1">
          <mxGeometry x="470" y="330" width="60" height="30" as="geometry" />
        </mxCell>
        <mxCell id="jBmMPagFaZcNn0isAh7Z-24" value="" style="endArrow=classic;html=1;rounded=0;exitX=0.25;exitY=0;exitDx=0;exitDy=0;entryX=0.25;entryY=1;entryDx=0;entryDy=0;" edge="1" parent="1" source="jBmMPagFaZcNn0isAh7Z-3" target="jBmMPagFaZcNn0isAh7Z-5">
          <mxGeometry width="50" height="50" relative="1" as="geometry">
            <mxPoint x="290" y="200" as="sourcePoint" />
            <mxPoint x="340" y="150" as="targetPoint" />
          </mxGeometry>
        </mxCell>
        <mxCell id="jBmMPagFaZcNn0isAh7Z-25" value="" style="endArrow=classic;html=1;rounded=0;entryX=0.75;entryY=0;entryDx=0;entryDy=0;exitX=0.75;exitY=1;exitDx=0;exitDy=0;" edge="1" parent="1" source="jBmMPagFaZcNn0isAh7Z-5" target="jBmMPagFaZcNn0isAh7Z-3">
          <mxGeometry width="50" height="50" relative="1" as="geometry">
            <mxPoint x="310" y="160" as="sourcePoint" />
            <mxPoint x="360" y="110" as="targetPoint" />
          </mxGeometry>
        </mxCell>
      </root>
    </mxGraphModel>
  </diagram>
</mxfile>
